<?xml version="1.0" encoding="UTF-8" standalone="no"?><!-- Generator: Gravit.io --><svg xmlns="http://www.w3.org/2000/svg" xmlns:xlink="http://www.w3.org/1999/xlink" style="isolation:isolate" viewBox="81 400.513 118.476 199.973" width="118.476pt" height="199.973pt"><path d=" M 165.218 401.227 C 160.478 402.919 156.641 407.133 154.046 413.565 C 153.293 415.408 152.014 418.418 151.224 420.223 C 150.434 422.067 149.87 424.474 149.983 425.603 C 150.096 426.731 149.757 428.198 149.193 428.875 C 147.876 430.493 148.591 438.806 150.209 440.612 C 150.848 441.327 151.375 442.267 151.375 442.681 C 151.375 444.148 153.293 445.201 154.234 444.261 C 155.061 443.433 156.641 446.142 156.641 448.436 C 156.641 450.204 162.698 457.389 165.293 458.706 C 168.34 460.248 168.491 460.098 166.422 457.163 C 165.556 455.997 164.917 454.756 164.992 454.417 C 165.331 452.386 164.729 450.242 163.488 449.189 C 162.209 448.098 162.171 447.797 163.111 446.856 C 163.713 446.254 163.977 445.088 163.751 444.11 C 162.773 440.236 162.209 430.342 162.81 428.236 C 163.187 426.994 163.638 425.452 163.788 424.85 C 164.278 422.857 165.857 418.493 166.535 417.139 C 166.873 416.424 167.174 415.371 167.174 414.769 C 167.174 414.205 167.663 413.528 168.265 413.302 C 168.904 413.076 169.243 412.211 169.055 411.346 C 168.716 409.578 169.845 409.427 175.337 410.518 C 181.092 411.609 188.465 422.819 182.936 421.991 C 180.227 421.615 180.001 422.894 182.409 424.85 C 185.042 426.994 183.763 443.132 180.679 447.044 C 180.378 447.458 179.889 449.151 179.625 450.806 C 179.136 453.627 179.212 453.74 180.302 452.348 C 180.942 451.558 181.469 450.505 181.469 450.016 C 181.469 449.527 181.995 448.7 182.597 448.173 C 184.591 446.518 183.613 450.317 181.356 453.026 C 180.98 453.439 179.625 455.433 178.384 457.389 C 177.105 459.345 175.751 460.963 175.375 460.963 C 174.998 460.963 174.697 461.452 174.697 462.016 C 174.697 462.58 174.208 463.257 173.569 463.483 C 172.365 463.935 171.989 462.844 173.118 462.129 C 174.058 461.565 174.697 458.706 173.87 458.706 C 173.494 458.706 173.193 459.157 173.193 459.721 C 173.193 460.286 172.516 461.339 171.65 462.129 C 170.823 462.881 169.393 464.8 168.491 466.38 C 167.625 467.96 166.497 469.239 165.97 469.239 C 165.444 469.239 164.014 470.518 162.773 472.06 C 161.531 473.602 157.958 477.401 154.798 480.524 C 151.638 483.608 146.597 489.025 143.626 492.561 C 140.654 496.06 137.456 499.633 136.516 500.498 C 135.576 501.326 134.823 502.342 134.823 502.755 C 134.823 505.991 130.573 504.937 129.294 501.364 C 129.03 500.611 128.203 500.085 127.488 500.16 C 126.698 500.273 123.388 497.602 119.024 493.351 C 115.112 489.514 110.598 485.527 109.056 484.474 C 107.513 483.458 106.422 482.292 106.648 481.953 C 106.874 481.577 106.498 481.502 105.82 481.765 C 104.88 482.141 104.805 482.367 105.595 482.856 C 107.664 484.135 105.519 484.285 101.269 483.119 C 96.379 481.84 82.385 481.502 81.181 482.705 C 80.053 483.834 84.454 485.677 87.238 485.226 C 89.156 484.963 89.683 485.151 89.683 486.091 C 89.683 487.483 91.375 487.671 93.294 486.467 C 94.987 485.414 98.899 487.257 105.708 492.373 C 110.974 496.285 127.488 512.724 127.149 513.664 C 127.037 514.003 124.855 516.561 122.297 519.42 C 113.833 528.787 108.341 535.52 108.792 536.009 C 109.018 536.235 108.491 536.837 107.551 537.288 C 106.61 537.777 105.896 538.793 105.971 539.583 C 106.046 540.335 104.015 543.645 101.457 546.918 C 98.936 550.191 95.739 554.253 94.385 555.984 C 91.488 559.708 88.178 565.388 88.178 566.592 C 88.178 567.043 87.35 568.322 86.335 569.413 C 85.319 570.504 84.717 571.595 84.981 571.858 C 85.206 572.121 85.018 572.31 84.529 572.31 C 82.987 572.31 83.589 573.626 85.357 574.115 C 86.636 574.454 86.824 574.717 86.034 575.206 C 85.47 575.582 85.093 576.974 85.169 578.404 C 85.47 583.444 85.169 585.099 84.078 585.099 C 83.137 585.099 83.175 585.476 84.191 587.545 C 84.868 588.899 85.658 590.479 85.959 591.118 C 86.222 591.72 87.2 592.247 88.103 592.247 C 89.006 592.247 89.984 592.66 90.285 593.149 C 92.203 596.196 99.237 596.347 102.773 593.45 C 103.225 593.074 104.805 592.811 106.309 592.849 C 108.98 592.924 120.529 587.733 120.529 586.454 C 120.529 586.115 121.018 585.852 121.62 585.852 C 122.748 585.852 128.052 579.833 128.052 578.516 C 128.052 578.103 128.504 577.538 129.105 577.35 C 129.67 577.125 131.438 575.056 133.055 572.761 C 134.635 570.466 136.366 568.548 136.892 568.548 C 137.419 568.548 137.833 568.285 137.833 567.984 C 137.833 566.404 149.118 554.705 149.87 555.495 C 152.428 558.09 156.303 573.927 156.905 584.121 C 157.318 591.118 157.657 592.021 159.5 591.306 C 160.591 590.892 160.629 591.005 159.801 592.059 C 158.71 593.375 159.575 595.632 162.66 599.394 C 164.729 601.952 166.497 599.845 166.459 594.88 C 166.459 593.037 166.497 590.817 166.572 589.99 C 166.986 583.745 165.331 572.949 163.375 569.263 C 161.456 565.576 161.155 564.786 161.155 563.319 C 161.155 562.529 160.854 561.702 160.516 561.476 C 160.14 561.25 159.651 560.009 159.387 558.767 C 159.086 557.3 158.296 556.247 157.13 555.796 C 154.459 554.78 153.632 549.89 155.814 548.122 C 156.679 547.445 157.394 546.542 157.394 546.166 C 157.394 545.752 158.484 544.247 159.839 542.818 C 164.992 537.25 167.588 534.241 168.754 532.435 C 169.469 531.382 171.312 529.163 172.929 527.508 C 174.509 525.815 176.879 523.182 178.196 521.677 C 179.512 520.135 180.867 518.893 181.205 518.893 C 181.544 518.893 182.672 517.614 183.688 516.072 C 184.741 514.53 186.359 512.423 187.337 511.407 C 188.315 510.392 189.744 508.172 190.572 506.517 C 191.362 504.824 192.302 502.944 192.641 502.342 C 194.484 498.994 194.747 497.79 194.597 493.125 C 194.484 490.342 194.672 487.897 194.973 487.709 C 195.274 487.52 195.274 485.564 194.973 483.383 C 194.334 478.53 194.409 478.417 196.967 480.448 C 198.095 481.314 199.149 481.916 199.337 481.727 C 200.051 481.013 197.907 478.342 195.387 476.875 C 193.92 476.01 192.829 474.919 192.942 474.43 C 193.732 470.856 186.472 469.427 176.578 471.195 C 173.795 471.684 173.644 471.646 174.622 470.48 C 175.186 469.765 175.826 469.351 176.014 469.577 C 176.465 470.029 178.459 468.072 178.459 467.17 C 178.459 466.793 179.475 465.364 180.716 463.972 C 181.958 462.618 183.161 460.775 183.425 459.909 C 183.726 459.044 184.139 458.141 184.44 457.953 C 185.193 457.389 187.299 452.574 187.901 450.054 C 188.202 448.812 188.766 447.157 189.18 446.33 C 191.174 442.493 191.023 424.474 188.954 413.866 C 187.262 405.365 173.795 398.18 165.218 401.227 Z  M 181.619 481.652 C 184.102 483.495 186.584 485.038 187.149 485.038 C 190.346 485.038 190.948 488.724 189.443 499.031 C 189.218 500.611 186.885 503.583 182.108 508.398 C 179.475 511.069 175.638 515.432 173.569 518.141 C 171.5 520.812 169.469 523.294 169.055 523.595 C 168.566 523.934 168.566 524.16 169.055 524.16 C 169.469 524.197 169.205 524.536 168.491 524.987 C 167.776 525.401 167.174 526.153 167.174 526.642 C 167.174 527.131 166.158 528.222 164.917 529.05 C 163.676 529.877 162.66 531.156 162.66 531.871 C 162.66 532.586 162.171 533.188 161.531 533.188 C 160.93 533.188 160.403 533.526 160.403 533.978 C 160.403 534.391 159.463 535.67 158.334 536.837 C 157.205 537.965 155.513 539.846 154.572 540.937 C 152.767 543.119 150.622 543.645 150.622 541.877 C 150.622 541.313 150.171 540.373 149.644 539.808 C 148.14 538.304 145.281 533.376 145.469 532.699 C 145.582 532.36 143.889 528.598 141.782 524.348 C 139.45 519.721 138.058 516.147 138.359 515.395 C 138.66 514.642 138.284 513.777 137.419 513.138 C 135.801 511.934 140.767 506.517 144.303 505.652 C 145.807 505.276 145.996 504.975 145.243 504.072 C 143.739 502.266 151.525 495.044 161.983 488.611 C 163.488 487.671 163.864 486.956 163.6 485.301 C 163.299 483.27 163.6 483.006 168.792 480.749 C 175.939 477.627 176.315 477.665 181.619 481.652 Z  M 136.704 526.078 C 138.134 529.238 139.563 532.623 139.789 533.677 C 140.052 534.692 141.068 536.047 142.046 536.686 C 144.039 538.003 144.491 539.395 142.723 538.717 C 140.692 537.965 141.519 539.733 144.115 541.727 C 147.086 543.984 148.177 547.633 146.597 550.04 C 145.206 552.147 140.466 557.263 139.902 557.263 C 139.187 557.263 139.751 555.043 140.692 554.103 C 142.046 552.749 141.895 550.905 140.541 552.147 C 139.977 552.673 139.638 553.275 139.789 553.463 C 139.977 553.614 139.3 554.63 138.322 555.72 C 137.344 556.774 135.726 559.144 134.748 561.024 C 133.77 562.868 132.04 565.275 130.873 566.366 C 129.745 567.419 128.805 568.661 128.805 569.074 C 128.805 569.752 126.359 572.272 120.303 577.877 C 119.137 578.968 118.046 579.833 117.896 579.833 C 117.707 579.833 116.353 580.698 114.811 581.714 C 110.899 584.347 106.686 584.197 109.394 581.488 C 110.711 580.172 108.679 580.322 105.971 581.714 C 97.883 585.927 91.263 585.814 93.106 581.526 C 93.407 580.811 93.745 579.683 93.821 579.081 C 93.933 578.441 94.234 577.388 94.535 576.748 C 94.874 575.883 94.573 575.394 93.444 575.093 C 92.165 574.755 92.015 574.416 92.579 573.325 C 92.955 572.535 93.896 570.504 94.611 568.774 C 95.325 567.006 96.868 564.636 98.034 563.507 C 100.629 560.949 100.705 560.385 98.598 559.633 C 97.056 559.068 102.284 552.711 112.065 543.307 C 113.005 542.404 113.758 541.426 113.758 541.125 C 113.758 540.674 121.131 532.924 128.428 525.664 C 129.67 524.423 131.325 522.73 132.152 521.903 C 134.033 519.909 133.695 519.608 136.704 526.078 Z  M 115.45 532.134 C 115.902 532.586 111.35 536.949 110.447 536.949 C 110.146 536.949 110.786 536.009 111.839 534.88 C 112.892 533.752 113.758 532.586 113.758 532.247 C 113.758 531.57 114.811 531.495 115.45 532.134 Z " fill="rgb(0,0,0)"/></svg>